<?xml version="1.0" encoding="iso-8859-1"?>
<!-- Uploaded to: SVG Repo, www.svgrepo.com, Generator: SVG Repo Mixer Tools -->
<svg version="1.1" id="Layer_1" xmlns="http://www.w3.org/2000/svg" xmlns:xlink="http://www.w3.org/1999/xlink" 
	 viewBox="0 0 512.047 512.047" xml:space="preserve">
<rect x="436.042" y="405.687" transform="matrix(0.7071 -0.7071 0.7071 0.7071 -189.9193 458.6336)" width="45.236" height="105.765"/>
<polygon points="390.358,489.416 487.894,391.88 369.82,371.342 "/>
<circle style="fill:#E21B1B;" cx="200.19" cy="200.28" r="200.19"/>
<circle cx="280.33" cy="298.896" r="31.552"/>
<circle style="fill:#999999;" cx="280.33" cy="298.896" r="15.324"/>
<polygon points="161.432,145.342 140.709,84.013 87.058,84.013 87.058,67.633 152.474,67.633 176.956,140.087 "/>
<circle cx="185.154" cy="298.896" r="31.552"/>
<polygon style="fill:#FFFFFF;" points="121.682,131.577 349.233,131.577 305.86,253.267 159.576,253.267 "/>
<polygon style="fill:#E21B1B;" points="334.444,174.647 281.658,174.647 268.965,196.937 216.706,196.937 221.641,212.365 
	320.432,212.365 "/>
<circle style="fill:#999999;" cx="185.154" cy="298.896" r="15.324"/>
</svg>